<?xml version="1.0" encoding="UTF-8"?><svg id="Layer_2" xmlns="http://www.w3.org/2000/svg" viewBox="0 0 50.7 50.7"><defs><style>.cls-1{fill:#fa4a3e;stroke:#fa4a3e;stroke-width:4px;}.cls-1,.cls-2{stroke-miterlimit:10;}.cls-2{fill:#fff;fill-rule:evenodd;stroke:#fff;stroke-width:2px;}</style></defs><g id="Layer_1-2"><circle class="cls-1" cx="25.35" cy="25.35" r="21.29"/><path class="cls-2" d="M49.7,25.35c0,6.72-2.73,12.81-7.13,17.22-4.41,4.41-10.49,7.13-17.22,7.13s-12.81-2.73-17.22-7.13c-4.41-4.41-7.13-10.49-7.13-17.22s2.73-12.81,7.13-17.22C12.54,3.73,18.63,1,25.35,1s12.81,2.73,17.22,7.13c4.41,4.41,7.13,10.5,7.13,17.22h0ZM37.04,23.99H10.39c-.75,0-1.36.61-1.36,1.36,0,.75.61,1.36,1.36,1.36h26.65l-6.26,6.26c-.53.53-.53,1.39,0,1.92.53.53,1.39.53,1.92,0l8.57-8.57c.27-.27.4-.62.4-.97,0-.35-.13-.7-.4-.97l-8.57-8.57c-.53-.53-1.39-.53-1.92,0-.53.53-.53,1.39,0,1.92l6.26,6.26h0ZM25.35,3.72c-5.97,0-11.38,2.42-15.3,6.33-3.91,3.92-6.34,9.32-6.34,15.3,0,5.97,2.42,11.38,6.34,15.3,3.92,3.91,9.32,6.34,15.3,6.34,5.97,0,11.38-2.42,15.3-6.34,3.91-3.92,6.33-9.32,6.33-15.3s-2.42-11.38-6.33-15.3c-3.91-3.91-9.32-6.33-15.3-6.33Z"/></g></svg>
