<?xml version="1.0" encoding="UTF-8"?><svg id="Layer_2" xmlns="http://www.w3.org/2000/svg" viewBox="0 0 48.7 48.7"><defs><style>.cls-1{fill:#fa4a3e;fill-rule:evenodd;}</style></defs><g id="Layer_1-2"><path class="cls-1" d="M48.7,24.35c0,6.72-2.73,12.81-7.13,17.22-4.41,4.41-10.49,7.13-17.22,7.13s-12.81-2.73-17.22-7.13C2.73,37.16,0,31.07,0,24.35S2.73,11.54,7.13,7.13C11.54,2.73,17.63,0,24.35,0s12.81,2.73,17.22,7.13c4.41,4.41,7.13,10.5,7.13,17.22h0ZM36.04,22.99H9.39c-.75,0-1.36.61-1.36,1.36,0,.75.61,1.36,1.36,1.36h26.65l-6.26,6.26c-.53.53-.53,1.39,0,1.92.53.53,1.39.53,1.92,0l8.57-8.57c.27-.27.4-.62.4-.97,0-.35-.13-.7-.4-.97l-8.57-8.57c-.53-.53-1.39-.53-1.92,0-.53.53-.53,1.39,0,1.92l6.26,6.26h0ZM24.35,2.72c-5.97,0-11.38,2.42-15.3,6.33-3.91,3.92-6.34,9.32-6.34,15.3,0,5.97,2.42,11.38,6.34,15.3,3.92,3.91,9.32,6.34,15.3,6.34,5.97,0,11.38-2.42,15.3-6.34,3.91-3.92,6.33-9.32,6.33-15.3s-2.42-11.38-6.33-15.3c-3.91-3.91-9.32-6.33-15.3-6.33Z"/></g></svg>